<svg width="18" height="18" viewBox="0 0 18 18" fill="none" xmlns="http://www.w3.org/2000/svg">
<g clip-path="url(#clip0_552_72)">
<path d="M3.08211 8.22629H8.87253V9.8021H2.79875C2.79115 9.81786 2.78395 9.83363 2.77634 9.8494C3.40509 10.3776 4.03344 10.9053 4.65058 11.4236C4.27157 11.7898 3.89937 12.1496 3.54037 12.4965C2.37812 11.3507 1.18426 10.1734 0 9.00592C1.16865 7.85461 2.35971 6.68162 3.54157 5.5173C3.89416 5.87007 4.26037 6.23663 4.64258 6.61934C4.1327 7.11085 3.58839 7.63586 3.04409 8.16086C3.0569 8.18254 3.0693 8.20422 3.08211 8.2259V8.22629Z" fill="#F8C94E"/>
<path d="M15.391 0H6.61448C5.17568 0 4.00543 1.15289 4.00543 2.56946V3.27065H5.47344V2.56946C5.47344 1.94986 5.98533 1.44534 6.61488 1.44534H15.3914C16.0205 1.44534 16.5328 1.94946 16.5328 2.56946V15.4301C16.5328 16.0498 16.0209 16.5543 15.3914 16.5543H6.61488C5.98573 16.5543 5.47344 16.0501 5.47344 15.4301V14.5015H4.00543V15.4301C4.00543 16.8471 5.17608 17.9996 6.61448 17.9996H15.391C16.8297 17.9996 18 16.8467 18 15.4301V2.56946C18 1.15249 16.8293 0 15.391 0Z" fill="#F8C94E"/>
</g>
<defs>
<clipPath id="clip0_552_72">
<rect width="18" height="18" fill="white"/>
</clipPath>
</defs>
</svg>
